# xmcd
#
# Track frame offsets: 
#        150
#        33647
#        48795
#        72627
#        86944
#        107979
#        121217
#        144113
#        167054
#        199236
#        228897
#        256447
#        287208
#        315605
#        334208
#
# Disc length: 4728 seconds
#
# Revision: 0
# Processed by: cddbd v1.5.2PL0 Copyright (c) Steve Scherf et al.
# Submitted via: ExactAudioCopy v1.2
#
DISCID=e112760f
DTITLE=Various Artist - Eric Clapton: Life in 12 Bars [Original Motion Pictur
DTITLE=e Soundtrack] [CD2]
DYEAR=2018
DGENRE=Blues
TTITLE0=Delaney and Bonnie - Comin' Home (Live at Fairfield Halls)
TTITLE1=Eric Clapton - After Midnight (Eric Clapton Mix)
TTITLE2=Eric Clapton - Let It Rain (Eric Clapton Mix)
TTITLE3=Derek and the Dominos - High
TTITLE4=George Harrison - My Sweet Lord
TTITLE5=Derek and the Dominos - Thorn Three in the Garden
TTITLE6=Derek and the Dominos - Nobody Knows You When You're Down and Ou
TTITLE6=t
TTITLE7=Derek and the Dominos - Bell Bottom Blues
TTITLE8=Derek and the Dominos - Layla
TTITLE9=Derek and the Dominos - Little Wing (Live At Fillmore East)
TTITLE10=Derek and the Dominos - Got to Get better in a Little While
TTITLE11=Eric Clapton - I Shot the Sheriff (Full Length Version) 
TTITLE12=Eric Clapton - Little Queenie (Live at Long Beach Arena)
TTITLE13=Eric Clapton - Mainline Florida
TTITLE14=Eric Clapton - Tears in heaven
EXTD=
EXTT0=
EXTT1=
EXTT2=
EXTT3=
EXTT4=
EXTT5=
EXTT6=
EXTT7=
EXTT8=
EXTT9=
EXTT10=
EXTT11=
EXTT12=
EXTT13=
EXTT14=
PLAYORDER=
